Smallville S05E1920 1080p AVCHD

This is episodes 19 and 20 of the fifth season of smallville in 1080p AVCHD format that can be play in any PS3 and in some blu-ray players (LG BD370, Samsung BD-C6900). In a PC it can be pay with Powerdvd.

Just burn the iso with imgburn.

Video 1080p
English Audio Dolby Digital 5.1
Optional spanish Subtitles
Chapters


Season 5, Episode 19: Mercy
Original Air Date 20 April 2006
Lionel Luthor is chased by a man with mask and forced to play hangman to save his life when he traps Lionel in his limo in the path of a moving train. Later, he is abducted by the same stranger who places Lionel in an abandoned warehouse where he has to play lethal 'Jigsaw' type games to survive. Martha is also kidnapped and in his last test, the life of Martha is also put at stake and Lionel has to fight to save her life. Meanwhile, Chloe, Clark and Lex join forces trying to find Martha and Lionel.
	
Season 5, Episode 20: Fade
Original Air Date 27 April 2006
Standing outside the Metropolis courthouse with Chloe, Clark saves Graham Garrett from a car which would have crushed him. Graham insists to repay the favor by offering Clark whatever he wants, including the opportunity to be with Lana again by trying to kill Lex Luthor after Clark found out about heir affair. Graham later turns out to be a hired killer with chameleon powers that render him invisible. Clark also gets angry at Chloe for keeping Lana and Lex's affair from him. When Clark realizes that Graham wants to kill Lex, Clark wrestles with a moral dilemma whether or not to let him.


Episodes 01 02       
http://thepiratebay.org/torrent/5726041/Smallville_S05E0102_1080p_AVCHD

Episodes 03 04       
http://thepiratebay.org/torrent/5802610/Smallville_S05E0304_1080p_AVCHD

Episodes 05 06       
http://thepiratebay.org/torrent/5811212/Smallville_S05E0506_1080p_AVCHD

Episodes 07 08      
http://thepiratebay.org/torrent/5819194/Smallville_S05E0708_1080p_AVCHD

Episodes 09 10     
http://thepiratebay.org/torrent/5839361/Smallville_S05E0910_1080p_AVCHD

Episodes 11 12    
http://thepiratebay.org/torrent/5865930/Smallville_S05E1112_1080p_AVCHD

Episodes 13 14   
http://thepiratebay.org/torrent/5878933/Smallville_S05E1314_1080p_AVCHD

Episodes 15 16  
http://thepiratebay.org/torrent/5891849/Smallville_S05E1516_1080p_AVCHD

Episodes 17 18 
http://thepiratebay.org/torrent/5906044/Smallville_S05E1718_1080p_AVCHD


Mediainfo:
Format                           : BDAV
Format/Info                      : Blu-ray Video
File size                        : 2.15 GiB
Duration                         : 43mn 31s
Overall bit rate                 : 7 071 Kbps
Maximum Overall bit rate         : 35.5 Mbps

Video
ID                               : 4113 (0x1011)
Menu ID                          : 1 (0x1)
Format                           : AVC
Format/Info                      : Advanced Video Codec
Format profile                   : High@L4.1
Format settings, CABAC           : Yes
Format settings, ReFrames        : 4 frames
Format_Settings_GOP              : N=1
Duration                         : 43mn 31s
Bit rate mode                    : Variable
Bit rate                         : 6 141 Kbps
Nominal bit rate                 : 5 998 Kbps
Maximum bit rate                 : 24.0 Mbps
Width                            : 1 920 pixels
Height                           : 1 080 pixels
Display aspect ratio             : 16:9
Frame rate                       : 23.976 fps
Resolution                       : 8 bits
Colorimetry                      : 4:2:0
Scan type                        : Progressive
Bits/(Pixel*Frame)               : 0.124
Stream size                      : 1.87 GiB (87%)
Writing library                  : x264 core 94 r1583 7608d73
Encoding settings                : cabac=1 / ref=3 / deblock=1:0:0 / analyse=0x3:0x113 / me=umh / subme=7 / psy=1 / psy_rd=1.00:0.25 / mixed_ref=1 / me_range=16 / chroma_me=1 / trellis=1 / 8x8dct=1 / cqm=0 / deadzone=21,11 / fast_pskip=1 / chroma_qp_offset=-4 / threads=4 / sliced_threads=0 / nr=0 / decimate=1 / interlaced=0 / constrained_intra=0 / bframes=3 / b_pyramid=2 / b_adapt=1 / b_bias=0 / direct=3 / weightb=1 / weightp=0 / keyint=24 / keyint_min=2 / scenecut=40 / intra_refresh=0 / rc_lookahead=24 / rc=2pass / mbtree=1 / bitrate=5998 / ratetol=1.0 / qcomp=0.60 / qpmin=10 / qpmax=51 / qpstep=4 / cplxblur=20.0 / qblur=0.5 / vbv_maxrate=24000 / vbv_bufsize=24000 / ip_ratio=1.10 / aq=1:1.00 / nal_hrd=vbr

Audio
ID                               : 4352 (0x1100)
Menu ID                          : 1 (0x1)
Format                           : AC-3
Format/Info                      : Audio Coding 3
Format_Settings_ModeExtension    : CM (complete main)
Duration                         : 43mn 31s
Bit rate mode                    : Constant
Bit rate                         : 640 Kbps
Channel(s)                       : 6 channels
Channel positions                : Front: L C R, Side: L R, LFE
Sampling rate                    : 48.0 KHz
Stream size                      : 199 MiB (9%)
Language                         : English /  / 

Text
ID                               : 4608 (0x1200)
Menu ID                          : 1 (0x1)
Format                           : PGS
Video delay                      : 6s 465ms
Language                         : Spanish /  / 



